<?xml version="1.0" ?><svg enable-background="new 0 0 256 256" id="Layer_1" version="1.1" viewBox="0 0 256 256" xml:space="preserve" xmlns="http://www.w3.org/2000/svg" xmlns:xlink="http://www.w3.org/1999/xlink"><g><path d="M247.4,183.7c-6.2,6.4-54,26-87.1,26c-8.5,0-16.1-1.4-23.1-4h0c-3.4-1.3-6.7-2.9-10-4.7   c6.5,2.2,13.5,3.3,21.2,3.3c33.1,0,81-19.6,87.1-26c5.2-5.4,6-14,2.5-19.2c4.5,0.9,7.9,1.8,9.3,2.8   C253.5,166.1,253.5,177.2,247.4,183.7z" fill="#434A54" opacity="0.1"/><path d="   M247.4,183.7c-6.2,6.4-54,26-87.1,26c-8.5,0-16.1-1.4-23.1-4h0c-20.3-7.6-36.4-25.8-58.6-52c-29.8-35.2-72-41.4-72-41.4   c-7.1-27.1,0.8-48.8,21.3-66c10.5,11.2,21,21.8,31.5,31.7l0,0c50.4,67.3,97.2,107,134.5,75.7c0,0,47.3,3.8,53.5,8.1   C253.5,166.1,253.5,177.2,247.4,183.7z" fill="none" stroke="#434A54" stroke-linecap="round" stroke-linejoin="round" stroke-miterlimit="10" stroke-width="8"/><path d="   M193.9,153.7C156.5,185,109.8,145.3,59.3,78C104.6,120.7,149.5,150,193.9,153.7z" fill="none" stroke="#434A54" stroke-linecap="round" stroke-linejoin="round" stroke-miterlimit="10" stroke-width="8"/><path d="   M137.1,205.7l-117.9-3L6.5,112.3c0,0,42.2,6.2,72,41.4C100.8,179.9,116.8,198,137.1,205.7z" fill="none" stroke="#434A54" stroke-linecap="round" stroke-linejoin="round" stroke-miterlimit="10" stroke-width="8"/></g></svg>